<mxfile host="app.diagrams.net" modified="2024-03-08T08:59:24.387Z" agent="Mozilla/5.0 (Windows NT 10.0; Win64; x64; rv:109.0) Gecko/20100101 Firefox/115.0" version="24.0.0" etag="IYn1YsaN9tdsV_hT6T3t" type="github">
  <diagram name="Page-1" id="lrzvHtqcPwrU7sMhBx4h">
    <mxGraphModel>
      <root>
        <mxCell id="0" />
        <mxCell id="1" parent="0" />
      </root>
    </mxGraphModel>
  </diagram>
</mxfile>
